Coordinates
version=1
nRows=5
nColumns=40
inDegrees=yes

Units are S.I. units (second, meters, Newtons, ...)
If the header above contains a line with 'inDegrees', this indicates whether rotational values are in degrees (yes) or radians (no).

endheader
time	pelvis_tilt	pelvis_list	pelvis_rotation	pelvis_tx	pelvis_ty	pelvis_tz	hip_flexion_r	hip_adduction_r	hip_rotation_r	knee_angle_r	knee_angle_r_beta	ankle_angle_r	subtalar_angle_r	mtp_angle_r	hip_flexion_l	hip_adduction_l	hip_rotation_l	knee_angle_l	knee_angle_l_beta	ankle_angle_l	subtalar_angle_l	mtp_angle_l	lumbar_extension	lumbar_bending	lumbar_rotation	arm_flex_r	arm_add_r	arm_rot_r	elbow_flex_r	pro_sup_r	wrist_flex_r	wrist_dev_r	arm_flex_l	arm_add_l	arm_rot_l	elbow_flex_l	pro_sup_l	wrist_flex_l	wrist_dev_l
      1.60000000	     -4.31721852	      1.25556687	      2.88419428	     -0.30393982	      0.97007434	     -0.80617090	     13.25495939	      2.71417473	    -11.11539982	     18.98722974	      0.33138967	     -5.68126012	      0.00000000	      0.00000000	     15.16430844	     -6.26393603	     -1.66690464	     77.28080276	      1.34880446	    -13.34132129	      0.00000000	      0.00000000	     -4.66100050	      2.16450276	     -3.32572404	     65.59268491	    -20.63582677	     34.21584960	     76.56074574	     86.98200462	      0.00000000	      0.00000000	     68.82720364	    -12.96023619	     37.10415418	     70.87599593	     81.81902408	      0.00000000	      0.00000000
      1.60500000	     -4.38748142	      1.25353386	      2.91001650	     -0.30433189	      0.96974853	     -0.80616946	     13.45778155	      2.68307215	    -11.18945914	     19.17927882	      0.33474156	     -5.66670643	      0.00000000	      0.00000000	     15.30552137	     -6.22916821	     -1.65515675	     77.45281486	      1.35180663	    -12.76564314	      0.00000000	      0.00000000	     -4.69843167	      2.16440365	     -3.25624721	     65.75016255	    -20.72833368	     34.24371956	     76.60055338	     86.71718157	      0.00000000	      0.00000000	     69.05005160	    -12.81011282	     37.02617053	     70.64017315	     84.15265033	      0.00000000	      0.00000000
      1.61000000	     -4.43837192	      1.27025003	      2.89755005	     -0.30471688	      0.96937134	     -0.80611548	     13.65918765	      2.64358670	    -11.16049503	     19.43952494	      0.33928372	     -5.54396537	      0.00000000	      0.00000000	     15.40534394	     -6.15014042	     -1.73403405	     77.58895275	      1.35418269	    -13.14780746	      0.00000000	      0.00000000	     -4.76221741	      2.16356173	     -3.25864307	     65.96021313	    -20.68173721	     34.29734194	     76.53679587	     86.71138219	      0.00000000	      0.00000000	     69.24045552	    -12.90106198	     37.09461228	     70.67869709	     84.15383828	      0.00000000	      0.00000000
      1.61500000	     -4.53023788	      1.29111571	      2.87462676	     -0.30513248	      0.96893395	     -0.80606792	     13.91449774	      2.60263161	    -11.10361958	     19.72313250	      0.34423360	     -5.37519349	      0.00000000	      0.00000000	     15.56324573	     -6.07814986	     -1.79338249	     77.80862081	      1.35801662	    -13.09899457	      0.00000000	      0.00000000	     -4.79211966	      2.14971073	     -3.18637980	     66.17981521	    -20.74957417	     34.38228356	     76.55331721	     86.71423536	      0.00000000	      0.00000000	     69.46608751	    -12.91401723	     37.20165805	     70.68337180	     84.15507077	      0.00000000	      0.00000000
      1.62000000	     -4.63432334	      1.32921598	      2.88501419	     -0.30555741	      0.96849692	     -0.80608978	     14.19573022	      2.52197809	    -11.13691040	     20.00579882	      0.34916706	     -5.26234271	      0.00000000	      0.00000000	     15.73569636	     -5.97348674	     -1.85630171	     77.96747470	      1.36078914	    -13.38131437	      0.00000000	      0.00000000	     -4.79088220	      2.12290448	     -3.18033492	     66.38122372	    -20.74284514	     34.44482315	     76.49774749	     86.73186831	      0.00000000	      0.00000000	     69.64974779	    -12.94491687	     37.25496778	     70.62439864	     84.10332378	      0.00000000	      0.00000000
